<svg width="96" height="75" viewBox="0 0 96 75" fill="none" xmlns="http://www.w3.org/2000/svg">
<path d="M108.991 26.1693C109.003 24.0436 109.003 24.0436 108.993 19.0554C108.98 12.1587 98.3454 19.7315 92.2486 19.6336C86.5772 19.5421 82.7371 19.2206 75.6371 15.9019C67.0627 11.8944 56.8349 3.27696 46.6986 2.49452C38.899 1.89297 28.1391 6.80366 18.0221 8.9883C4.27052 11.9579 -1.48463 -1.22028 -12.366 2.75377L-13 122L108.456 121.212L108.991 26.1693Z" fill="#418DE8"/>
<path d="M90.2693 89C89.8624 89 89.6271 88.9861 89.6271 88.9861L66.409 88.9871C66.407 88.9881 66.1777 89 65.7946 89C59.528 89 52.8315 86.5065 52.8315 79.5103V28.3501C52.8315 19.7855 59.6888 14.6366 72.6726 13.4425V1.61207H83.3863V13.4425C96.3702 14.6366 103.23 19.7855 103.23 28.3501V79.5103C103.23 83.2674 101.305 86.0747 97.6656 87.6291C94.769 88.866 91.528 89 90.2693 89Z" fill="#D6FEFD"/>
<path d="M52.8315 32.3634V79.5103C52.8315 83.3498 54.8536 85.8255 57.7075 87.2847H98.3555C101.536 85.6786 103.23 83.0143 103.23 79.5103V32.3634H52.8315Z" fill="#87E3FF"/>
<path d="M82.7236 15.672C84.3486 15.664 85.9756 15.7971 87.5886 16.0422C89.2017 16.2815 90.7968 16.6765 92.3464 17.2265C93.886 17.7953 95.3859 18.5328 96.6872 19.5592C97.3364 20.0724 97.934 20.6501 98.4591 21.2844C98.9654 21.9346 99.4031 22.6364 99.7118 23.3878C98.8314 22.021 97.6819 20.8854 96.3676 19.997C95.0484 19.1165 93.6061 18.4266 92.1062 17.8895C90.6092 17.3376 89.0538 16.9346 87.4874 16.5733C85.917 16.2219 84.3258 15.9539 82.7236 15.672Z" fill="white"/>
<path d="M85.1048 1.71034C85.1048 2.23049 84.661 2.65833 84.122 2.65833H71.9402C71.3992 2.65833 70.9575 2.23049 70.9575 1.71034V0.950972C70.9575 0.426853 71.3992 6.00765e-06 71.9402 6.00765e-06H84.122C84.661 6.00765e-06 85.1048 0.426853 85.1048 0.950972V1.71034Z" fill="#55AAD0"/>
<path d="M104.063 59.5908C104.063 60.5705 103.217 61.3726 102.183 61.3726H53.8811C52.8457 61.3726 52 60.5705 52 59.5908V55.1963C52 54.2165 52.8457 53.4145 53.8811 53.4145H102.183C103.217 53.4145 104.063 54.2165 104.063 55.1963V59.5908Z" fill="#55AAD0"/>
<path d="M104.063 32.3634C104.063 33.3431 103.217 34.1442 102.183 34.1442H53.8811C52.8457 34.1442 52 33.3431 52 32.3634V27.9709C52 26.9921 52.8457 26.1901 53.8811 26.1901H102.183C103.217 26.1901 104.063 26.9921 104.063 27.9709V32.3634Z" fill="#55AAD0"/>
<path d="M83.4184 5.52412H72.6442C72.0317 5.52412 71.5513 6.16239 71.5513 6.97636V8.2946C71.5513 9.11155 72.0317 9.74982 72.6442 9.74982H83.4184C84.0309 9.74982 84.5093 9.11155 84.5093 8.2946V6.97636C84.5093 6.16239 84.0309 5.52412 83.4184 5.52412Z" fill="#BBFBFA"/>
</svg>
