<svg width="96" height="73" viewBox="0 0 96 73" fill="none" xmlns="http://www.w3.org/2000/svg">
<path d="M108.991 24.1693C109.003 22.0436 109.003 22.0436 108.993 17.0554C108.98 10.1587 98.3454 17.7315 92.2486 17.6336C86.5772 17.5421 82.7371 17.2206 75.6371 13.9019C67.0627 9.89438 56.8349 1.27696 46.6986 0.494522C38.899 -0.107032 28.1391 4.80366 18.0221 6.9883C4.27052 9.95793 -1.48463 -3.22028 -12.366 0.753767L-13 120L108.456 119.212L108.991 24.1693Z" fill="#418DE8"/>
<path d="M55.5857 56.3108C55.5857 56.3108 55.5857 59.1108 55.5857 59.3866C55.5857 59.6614 54.5181 60.0742 53.3699 61.6044C52.2227 63.1337 52 64.805 52 65.9348C52 66.1422 52 66.3598 52 66.5855C52 67.178 52 67.8288 52 68.5255C52 68.6593 52.1154 68.7686 52.2544 68.7686H58.1824C58.3244 68.7686 58.4378 68.6593 58.4378 68.5234V66.5865V56.3108H55.5857Z" fill="#D6FEFD"/>
<path d="M58.1824 69.0751H52.2544C52.1154 69.0751 52 69.1854 52 69.3212C52 69.9393 52 70.588 52 71.2581C52 71.394 52.1154 71.5033 52.2544 71.5033H58.1824C58.3244 71.5033 58.4378 71.394 58.4378 71.2571V69.3212C58.4378 69.1864 58.3244 69.0751 58.1824 69.0751Z" fill="white"/>
<path d="M58.1824 71.8098H52.2544C52.1154 71.8098 52 71.9201 52 72.0539C52 72.6852 52 73.3339 52 73.9928C52 74.1266 52.1154 74.237 52.2544 74.237H58.1824C58.3244 74.237 58.4378 74.1266 58.4378 73.9918V72.0539C58.4378 71.9201 58.3244 71.8098 58.1824 71.8098Z" fill="white"/>
<path d="M58.1825 71.8098C58.3245 71.8098 58.4379 71.9201 58.4379 72.0539V71.2571C58.4379 71.394 58.3245 71.5033 58.1825 71.5033H52.2544V71.8098H58.1825Z" fill="white"/>
<path d="M58.1825 69.075C58.3245 69.075 58.4379 69.1864 58.4379 69.3212V68.5234C58.4379 68.6593 58.3245 68.7686 58.1825 68.7686H52.2544V69.075H58.1825Z" fill="white"/>
<path d="M61.2912 56.3108C61.2912 56.3108 61.2912 59.1108 61.2912 59.3866C61.2912 59.6614 62.3587 60.0742 63.508 61.6044C64.6541 63.1337 64.8779 64.805 64.8779 65.9348C64.8779 66.1422 64.8779 66.3598 64.8779 66.5855C64.8779 67.178 64.8779 67.8288 64.8779 68.5255C64.8779 68.6593 64.7634 68.7686 64.6235 68.7686H58.6934C58.5544 68.7686 58.438 68.6593 58.438 68.5234V66.5865V56.3108H61.2912Z" fill="#BDEEED"/>
<path d="M58.6934 69.0751H64.6235C64.7634 69.0751 64.8779 69.1854 64.8779 69.3212C64.8779 69.9393 64.8779 70.588 64.8779 71.2581C64.8779 71.394 64.7634 71.5033 64.6235 71.5033H58.6934C58.5544 71.5033 58.438 71.394 58.438 71.2571V69.3212C58.438 69.1864 58.5544 69.0751 58.6934 69.0751Z" fill="white"/>
<path d="M58.6934 71.8098H64.6235C64.7634 71.8098 64.8779 71.9201 64.8779 72.0539C64.8779 72.6852 64.8779 73.3339 64.8779 73.9928C64.8779 74.1266 64.7634 74.237 64.6235 74.237H58.6934C58.5544 74.237 58.438 74.1266 58.438 73.9918V72.0539C58.438 71.9201 58.5544 71.8098 58.6934 71.8098Z" fill="white"/>
<path d="M58.6934 71.8098C58.5544 71.8098 58.438 71.9201 58.438 72.0539V71.2571C58.438 71.394 58.5544 71.5033 58.6934 71.5033H64.6235V71.8098H58.6934Z" fill="white"/>
<path d="M58.6934 69.075C58.5544 69.075 58.438 69.1864 58.438 69.3212V68.5234C58.438 68.6593 58.5544 68.7686 58.6934 68.7686H64.6235V69.075H58.6934Z" fill="white"/>
<path d="M52 65.7448C52 65.9522 52 66.1697 52 66.3955C52 66.988 52 67.6388 52 68.3355C52 68.4693 52.1154 68.5786 52.2544 68.5786V68.885C52.1154 68.885 52 68.9954 52 69.1312C52 69.7493 52 70.398 52 71.0681C52 71.204 52.1154 71.3133 52.2544 71.3133V71.6197C52.1154 71.6197 52 71.7301 52 71.8639C52 72.4952 52 73.1439 52 73.8028C52 73.9366 52.1154 74.0469 52.2544 74.0469V74.3534C52.1154 74.3534 52 74.4627 52 74.5976C52 75.2391 52 75.8857 52 76.5354C52 82.2735 52 88.173 52 90.59C52 94.7518 53.5303 96.4046 55.1883 96.4046C56.8463 96.4046 56.9729 95.7917 58.4378 95.7917C59.9048 95.7917 60.0335 96.4046 61.6905 96.4046C63.3464 96.4046 64.8777 94.7518 64.8777 90.59C64.8777 88.173 64.8777 82.2735 64.8777 76.5354C64.8777 75.8857 64.8777 75.2391 64.8777 74.5976C64.8777 74.4627 64.7633 74.3534 64.6233 74.3534V74.0469C64.7633 74.0469 64.8777 73.9366 64.8777 73.8028C64.8777 73.1439 64.8777 72.4952 64.8777 71.8639C64.8777 71.7301 64.7633 71.6197 64.6233 71.6197V71.3133C64.7633 71.3133 64.8777 71.204 64.8777 71.0681C64.8777 70.398 64.8777 69.7493 64.8777 69.1312C64.8777 68.9954 64.7633 68.885 64.6233 68.885V68.5786C64.7633 68.5786 64.8777 68.4693 64.8777 68.3355C64.8777 67.6388 64.8777 66.988 64.8777 66.3955C64.8777 66.1697 64.8777 65.9522 64.8777 65.7448C64.8777 65.2381 64.8276 64.6221 64.6734 63.9601H52.2053C52.0511 64.6221 52 65.2381 52 65.7448Z" fill="#87E3FF"/>
<path d="M59.8489 59.3866C59.8969 59.7871 60.1043 60.1263 60.4077 60.352C60.6968 60.5911 61.0564 60.7688 61.3914 60.9997C62.0677 61.4461 62.6541 62.0703 63.0678 62.7782C63.4785 63.4974 63.7165 64.3095 63.7635 65.1237C63.8074 65.945 63.7093 66.7234 63.6276 67.5192C63.5755 67.1239 63.552 66.7275 63.5142 66.3311C63.4907 65.9317 63.4734 65.5446 63.4059 65.1635C63.2782 64.4035 63.0474 63.6669 62.6622 63.0131C62.2853 62.3471 61.7704 61.7832 61.1759 61.2867C60.8848 61.0334 60.5425 60.8209 60.2514 60.5175C59.9674 60.2131 59.7876 59.7861 59.8489 59.3866Z" fill="white"/>
<path d="M58.7513 54C58.5796 54 58.2977 54 58.1271 54H55.2657C55.0941 54 54.9531 54.14 54.9531 54.3126V56.7888C54.9531 56.9605 55.0941 57.1014 55.2657 57.1014H58.1271C58.2977 57.1014 58.5796 57.1014 58.7513 57.1014H61.6126C61.7843 57.1014 61.9232 56.9605 61.9232 56.7888V54.3126C61.9232 54.14 61.7843 54 61.6126 54H58.7513Z" fill="white"/>
<path d="M58.4379 57.8308H54.7256V57.363H58.4379V57.8308Z" fill="#276B8A"/>
<path d="M62.1524 57.8308H58.438V57.363H62.1524V57.8308Z" fill="#276B8A"/>
<path d="M54.2456 68.7154C55.6431 68.5316 57.0416 68.4897 58.4401 68.4815C59.8366 68.4887 61.2361 68.5305 62.6336 68.7154C61.2361 68.9014 59.8366 68.9433 58.4401 68.9504C57.0416 68.9422 55.6431 68.9003 54.2456 68.7154Z" fill="white"/>
<path d="M54.2456 71.5523C55.6431 71.3685 57.0416 71.3266 58.4401 71.3184C59.8366 71.3245 61.2361 71.3674 62.6336 71.5523C61.2361 71.7383 59.8366 71.7801 58.4401 71.7873C57.0416 71.7791 55.6431 71.7372 54.2456 71.5523Z" fill="white"/>
<path d="M61.6906 96.5947C60.0337 96.5947 59.9049 95.7881 58.438 95.7881V74.6231C58.439 74.6231 58.44 74.6231 58.44 74.6231C59.8365 74.616 61.236 74.5741 62.6335 74.3892C61.236 74.2033 59.8365 74.1614 58.44 74.1542C58.44 74.1542 58.439 74.1542 58.438 74.1542V71.7873C58.439 71.7873 58.44 71.7873 58.44 71.7873C59.8365 71.7801 61.236 71.7383 62.6335 71.5523C61.236 71.3674 59.8365 71.3245 58.44 71.3184C58.44 71.3184 58.439 71.3184 58.438 71.3184V68.9504C58.439 68.9504 58.44 68.9504 58.44 68.9504C59.8365 68.9433 61.236 68.9014 62.6335 68.7155C61.236 68.5306 59.8365 68.4887 58.44 68.4815C58.44 68.4815 58.439 68.4815 58.438 68.4815V64.1502H63.1637C63.2689 64.4791 63.3476 64.8193 63.4058 65.1635C63.4732 65.5446 63.4906 65.9317 63.5141 66.3312C63.5519 66.7275 63.5754 67.1239 63.6275 67.5192C63.7092 66.7235 63.8073 65.945 63.7633 65.1237C63.745 64.7968 63.6949 64.4699 63.6152 64.1502H64.6736C64.8278 64.8121 64.8779 65.4281 64.8779 65.9348C64.8779 66.1422 64.8779 66.3598 64.8779 66.5855C64.8779 67.178 64.8779 67.8288 64.8779 68.5255C64.8779 68.6593 64.7634 68.7686 64.6235 68.7686V69.0751C64.7634 69.0751 64.8779 69.1854 64.8779 69.3213C64.8779 69.9393 64.8779 70.588 64.8779 71.2581C64.8779 71.394 64.7634 71.5033 64.6235 71.5033V71.8098C64.7634 71.8098 64.8779 71.9201 64.8779 72.0539C64.8779 72.6852 64.8779 73.3339 64.8779 73.9928C64.8779 74.1266 64.7634 74.237 64.6235 74.237V74.5434C64.7634 74.5434 64.8779 74.6527 64.8779 74.7876C64.8779 75.4291 64.8779 76.0758 64.8779 76.7255C64.8779 82.4635 64.8779 88.363 64.8779 90.78C64.8779 94.9418 63.3466 96.5947 61.6906 96.5947ZM63.6275 75.7938C63.5325 77.4906 63.4865 79.1874 63.4487 80.8853C63.4089 82.581 63.4119 84.2788 63.3935 85.9756L63.4446 91.066C63.4477 91.8996 63.3864 92.7445 63.1749 93.5505C63.0707 93.953 62.9298 94.3493 62.6999 94.6946C62.4741 95.0317 62.1258 95.3249 61.6906 95.3443C61.7162 95.3474 61.7427 95.3474 61.7682 95.3474C62.1738 95.3474 62.5528 95.0889 62.8 94.7692C63.0707 94.4259 63.2526 94.0244 63.3946 93.6158C63.6602 92.7904 63.7633 91.9293 63.8052 91.0701C63.8492 89.3692 63.843 87.6745 63.8624 85.9756C63.843 84.2788 63.8461 82.581 63.8073 80.8853C63.7695 79.1874 63.7235 77.4906 63.6275 75.7938Z" fill="#3F9AC4"/>
<path d="M63.6274 67.5192C63.5753 67.1239 63.5518 66.7275 63.514 66.3311C63.4905 65.9317 63.4731 65.5446 63.4057 65.1635C63.3475 64.8193 63.2688 64.4791 63.1636 64.1501H63.6151C63.6948 64.4699 63.7448 64.7968 63.7632 65.1237C63.8072 65.945 63.7091 66.7234 63.6274 67.5192Z" fill="#E2FAFA"/>
<path d="M58.44 68.9504C58.44 68.9504 58.439 68.9504 58.438 68.9504V68.4815C58.439 68.4815 58.44 68.4815 58.44 68.4815C59.8365 68.4887 61.236 68.5305 62.6335 68.7154C61.236 68.9014 59.8365 68.9433 58.44 68.9504Z" fill="#E2FAFA"/>
<path d="M58.44 71.7873C58.44 71.7873 58.439 71.7873 58.438 71.7873V71.3184C58.439 71.3184 58.44 71.3184 58.44 71.3184C59.8365 71.3245 61.236 71.3674 62.6335 71.5523C61.236 71.7383 59.8365 71.7801 58.44 71.7873Z" fill="#E2FAFA"/>
<path d="M64.5857 46.3108C64.5857 46.3108 64.5857 49.1108 64.5857 49.3866C64.5857 49.6614 63.5181 50.0742 62.3699 51.6044C61.2227 53.1337 61 54.805 61 55.9348C61 56.1422 61 56.3598 61 56.5855C61 57.178 61 57.8288 61 58.5255C61 58.6593 61.1154 58.7686 61.2544 58.7686H67.1824C67.3244 58.7686 67.4378 58.6593 67.4378 58.5234V56.5865V46.3108H64.5857Z" fill="#D6FEFD"/>
<path d="M67.1824 59.0751H61.2544C61.1154 59.0751 61 59.1854 61 59.3212C61 59.9393 61 60.588 61 61.2581C61 61.394 61.1154 61.5033 61.2544 61.5033H67.1824C67.3244 61.5033 67.4378 61.394 67.4378 61.2571V59.3212C67.4378 59.1864 67.3244 59.0751 67.1824 59.0751Z" fill="white"/>
<path d="M67.1824 61.8098H61.2544C61.1154 61.8098 61 61.9201 61 62.0539C61 62.6852 61 63.3339 61 63.9928C61 64.1266 61.1154 64.237 61.2544 64.237H67.1824C67.3244 64.237 67.4378 64.1266 67.4378 63.9918V62.0539C67.4378 61.9201 67.3244 61.8098 67.1824 61.8098Z" fill="white"/>
<path d="M67.1824 64.5434H61.2544C61.1154 64.5434 61 64.6527 61 64.7876C61 65.4291 61 66.0758 61 66.7255C61 72.4635 61 78.363 61 80.78C61 84.9418 62.5303 86.5947 64.1883 86.5947C65.8463 86.5947 65.9729 85.9817 67.4378 85.9817V66.7255V64.7876C67.4378 64.6527 67.3244 64.5434 67.1824 64.5434Z" fill="white"/>
<path d="M67.1825 61.8098C67.3245 61.8098 67.4379 61.9201 67.4379 62.0539V61.2571C67.4379 61.394 67.3245 61.5033 67.1825 61.5033H61.2544V61.8098H67.1825Z" fill="white"/>
<path d="M67.1825 64.5434C67.3245 64.5434 67.4379 64.6527 67.4379 64.7876V63.9918C67.4379 64.1266 67.3245 64.237 67.1825 64.237H61.2544V64.5434H67.1825Z" fill="white"/>
<path d="M67.1825 59.075C67.3245 59.075 67.4379 59.1864 67.4379 59.3212V58.5234C67.4379 58.6593 67.3245 58.7686 67.1825 58.7686H61.2544V59.075H67.1825Z" fill="white"/>
<path d="M70.2912 46.3108C70.2912 46.3108 70.2912 49.1108 70.2912 49.3866C70.2912 49.6614 71.3587 50.0742 72.508 51.6044C73.6541 53.1337 73.8779 54.805 73.8779 55.9348C73.8779 56.1422 73.8779 56.3598 73.8779 56.5855C73.8779 57.178 73.8779 57.8288 73.8779 58.5255C73.8779 58.6593 73.7634 58.7686 73.6235 58.7686H67.6934C67.5544 58.7686 67.438 58.6593 67.438 58.5234V56.5865V46.3108H70.2912Z" fill="#BDEEED"/>
<path d="M67.6934 59.0751H73.6235C73.7634 59.0751 73.8779 59.1854 73.8779 59.3212C73.8779 59.9393 73.8779 60.588 73.8779 61.2581C73.8779 61.394 73.7634 61.5033 73.6235 61.5033H67.6934C67.5544 61.5033 67.438 61.394 67.438 61.2571V59.3212C67.438 59.1864 67.5544 59.0751 67.6934 59.0751Z" fill="white"/>
<path d="M67.6934 61.8098H73.6235C73.7634 61.8098 73.8779 61.9201 73.8779 62.0539C73.8779 62.6852 73.8779 63.3339 73.8779 63.9928C73.8779 64.1266 73.7634 64.237 73.6235 64.237H67.6934C67.5544 64.237 67.438 64.1266 67.438 63.9918V62.0539C67.438 61.9201 67.5544 61.8098 67.6934 61.8098Z" fill="white"/>
<path d="M67.6934 64.5434H73.6235C73.7634 64.5434 73.8779 64.6527 73.8779 64.7876C73.8779 65.4291 73.8779 66.0758 73.8779 66.7255C73.8779 72.4635 73.8779 78.363 73.8779 80.78C73.8779 84.9418 72.3466 86.5947 70.6906 86.5947C69.0337 86.5947 68.9049 85.9817 67.438 85.9817V66.7255V64.7876C67.438 64.6527 67.5544 64.5434 67.6934 64.5434Z" fill="white"/>
<path d="M67.6934 61.8098C67.5544 61.8098 67.438 61.9201 67.438 62.0539V61.2571C67.438 61.394 67.5544 61.5033 67.6934 61.5033H73.6235V61.8098H67.6934Z" fill="white"/>
<path d="M67.6934 64.5434C67.5544 64.5434 67.438 64.6527 67.438 64.7876V63.9918C67.438 64.1266 67.5544 64.237 67.6934 64.237H73.6235V64.5434H67.6934Z" fill="white"/>
<path d="M67.6934 59.075C67.5544 59.075 67.438 59.1864 67.438 59.3212V58.5234C67.438 58.6593 67.5544 58.7686 67.6934 58.7686H73.6235V59.075H67.6934Z" fill="white"/>
<path d="M61 55.7448C61 55.9522 61 56.1697 61 56.3955C61 56.988 61 57.6388 61 58.3355C61 58.4693 61.1154 58.5786 61.2544 58.5786V58.885C61.1154 58.885 61 58.9954 61 59.1312C61 59.7493 61 60.398 61 61.0681C61 61.204 61.1154 61.3133 61.2544 61.3133V61.6197C61.1154 61.6197 61 61.7301 61 61.8639C61 62.4952 61 63.1439 61 63.8028C61 63.9366 61.1154 64.0469 61.2544 64.0469V64.3534C61.1154 64.3534 61 64.4627 61 64.5976C61 65.2391 61 65.8857 61 66.5354C61 72.2735 61 78.173 61 80.59C61 84.7518 62.5303 86.4046 64.1883 86.4046C65.8463 86.4046 65.9729 85.7917 67.4378 85.7917C68.9048 85.7917 69.0335 86.4046 70.6905 86.4046C72.3464 86.4046 73.8777 84.7518 73.8777 80.59C73.8777 78.173 73.8777 72.2735 73.8777 66.5354C73.8777 65.8857 73.8777 65.2391 73.8777 64.5976C73.8777 64.4627 73.7633 64.3534 73.6233 64.3534V64.0469C73.7633 64.0469 73.8777 63.9366 73.8777 63.8028C73.8777 63.1439 73.8777 62.4952 73.8777 61.8639C73.8777 61.7301 73.7633 61.6197 73.6233 61.6197V61.3133C73.7633 61.3133 73.8777 61.204 73.8777 61.0681C73.8777 60.398 73.8777 59.7493 73.8777 59.1312C73.8777 58.9954 73.7633 58.885 73.6233 58.885V58.5786C73.7633 58.5786 73.8777 58.4693 73.8777 58.3355C73.8777 57.6388 73.8777 56.988 73.8777 56.3955C73.8777 56.1697 73.8777 55.9522 73.8777 55.7448C73.8777 55.2381 73.8276 54.6221 73.6734 53.9601H61.2053C61.0511 54.6221 61 55.2381 61 55.7448Z" fill="#87E3FF"/>
<path d="M72.6273 65.7938C72.7233 67.4906 72.7693 69.1874 72.8071 70.8852C72.8459 72.581 72.8428 74.2788 72.8622 75.9756C72.8428 77.6745 72.849 79.3692 72.805 81.0701C72.7632 81.9292 72.66 82.7904 72.3944 83.6158C72.2524 84.0244 72.0705 84.4259 71.7998 84.7691C71.5373 85.1093 71.1256 85.38 70.6904 85.3443C71.1256 85.3249 71.4739 85.0317 71.6997 84.6946C71.9296 84.3493 72.0705 83.9529 72.1747 83.5504C72.3862 82.7444 72.4475 81.8996 72.4444 81.066L72.3933 75.9756C72.4117 74.2788 72.4087 72.581 72.4485 70.8852C72.4863 69.1874 72.5323 67.4906 72.6273 65.7938Z" fill="white"/>
<path d="M68.8489 49.3866C68.8969 49.7871 69.1043 50.1263 69.4077 50.352C69.6968 50.5911 70.0564 50.7688 70.3914 50.9997C71.0677 51.4461 71.6541 52.0703 72.0678 52.7782C72.4785 53.4974 72.7165 54.3095 72.7635 55.1237C72.8074 55.945 72.7093 56.7234 72.6276 57.5192C72.5755 57.1239 72.552 56.7275 72.5142 56.3311C72.4907 55.9317 72.4734 55.5446 72.4059 55.1635C72.2782 54.4035 72.0474 53.6669 71.6622 53.0131C71.2853 52.3471 70.7704 51.7832 70.1759 51.2867C69.8848 51.0334 69.5425 50.8209 69.2514 50.5175C68.9674 50.2131 68.7876 49.7861 68.8489 49.3866Z" fill="white"/>
<path d="M67.7513 44C67.5796 44 67.2977 44 67.1271 44H64.2657C64.0941 44 63.9531 44.14 63.9531 44.3126V46.7888C63.9531 46.9605 64.0941 47.1014 64.2657 47.1014H67.1271C67.2977 47.1014 67.5796 47.1014 67.7513 47.1014H70.6126C70.7843 47.1014 70.9232 46.9605 70.9232 46.7888V44.3126C70.9232 44.14 70.7843 44 70.6126 44H67.7513Z" fill="white"/>
<path d="M67.4379 47.8308H63.7256V47.363H67.4379V47.8308Z" fill="#276B8A"/>
<path d="M71.1524 47.8308H67.438V47.363H71.1524V47.8308Z" fill="#276B8A"/>
<path d="M63.2456 58.7154C64.6431 58.5316 66.0416 58.4897 67.4401 58.4815C68.8366 58.4887 70.2361 58.5305 71.6336 58.7154C70.2361 58.9014 68.8366 58.9433 67.4401 58.9504C66.0416 58.9422 64.6431 58.9003 63.2456 58.7154Z" fill="white"/>
<path d="M63.2456 61.5523C64.6431 61.3685 66.0416 61.3266 67.4401 61.3184C68.8366 61.3245 70.2361 61.3674 71.6336 61.5523C70.2361 61.7383 68.8366 61.7801 67.4401 61.7873C66.0416 61.7791 64.6431 61.7372 63.2456 61.5523Z" fill="white"/>
<path d="M63.2456 64.3892C64.6431 64.2043 66.0416 64.1624 67.4401 64.1542C68.8366 64.1614 70.2361 64.2032 71.6336 64.3892C70.2361 64.5741 68.8366 64.616 67.4401 64.6231C66.0416 64.6149 64.6431 64.573 63.2456 64.3892Z" fill="white"/>
<path d="M70.6906 86.5947C69.0337 86.5947 68.9049 85.7881 67.438 85.7881V64.6231C67.439 64.6231 67.44 64.6231 67.44 64.6231C68.8365 64.616 70.236 64.5741 71.6335 64.3892C70.236 64.2033 68.8365 64.1614 67.44 64.1542C67.44 64.1542 67.439 64.1542 67.438 64.1542V61.7873C67.439 61.7873 67.44 61.7873 67.44 61.7873C68.8365 61.7801 70.236 61.7383 71.6335 61.5523C70.236 61.3674 68.8365 61.3245 67.44 61.3184C67.44 61.3184 67.439 61.3184 67.438 61.3184V58.9504C67.439 58.9504 67.44 58.9504 67.44 58.9504C68.8365 58.9433 70.236 58.9014 71.6335 58.7155C70.236 58.5306 68.8365 58.4887 67.44 58.4815C67.44 58.4815 67.439 58.4815 67.438 58.4815V54.1502H72.1637C72.2689 54.4791 72.3476 54.8193 72.4058 55.1635C72.4732 55.5446 72.4906 55.9317 72.5141 56.3312C72.5519 56.7275 72.5754 57.1239 72.6275 57.5192C72.7092 56.7235 72.8073 55.945 72.7633 55.1237C72.745 54.7968 72.6949 54.4699 72.6152 54.1502H73.6736C73.8278 54.8121 73.8779 55.4281 73.8779 55.9348C73.8779 56.1422 73.8779 56.3598 73.8779 56.5855C73.8779 57.178 73.8779 57.8288 73.8779 58.5255C73.8779 58.6593 73.7634 58.7686 73.6235 58.7686V59.0751C73.7634 59.0751 73.8779 59.1854 73.8779 59.3213C73.8779 59.9393 73.8779 60.588 73.8779 61.2581C73.8779 61.394 73.7634 61.5033 73.6235 61.5033V61.8098C73.7634 61.8098 73.8779 61.9201 73.8779 62.0539C73.8779 62.6852 73.8779 63.3339 73.8779 63.9928C73.8779 64.1266 73.7634 64.237 73.6235 64.237V64.5434C73.7634 64.5434 73.8779 64.6527 73.8779 64.7876C73.8779 65.4291 73.8779 66.0758 73.8779 66.7255C73.8779 72.4635 73.8779 78.363 73.8779 80.78C73.8779 84.9418 72.3466 86.5947 70.6906 86.5947ZM72.6275 65.7938C72.5325 67.4906 72.4865 69.1874 72.4487 70.8853C72.4089 72.581 72.4119 74.2788 72.3935 75.9756L72.4446 81.066C72.4477 81.8996 72.3864 82.7445 72.1749 83.5505C72.0707 83.953 71.9298 84.3493 71.6999 84.6946C71.4741 85.0317 71.1258 85.3249 70.6906 85.3443C70.7162 85.3474 70.7427 85.3474 70.7682 85.3474C71.1738 85.3474 71.5528 85.0889 71.8 84.7692C72.0707 84.4259 72.2526 84.0244 72.3946 83.6158C72.6602 82.7904 72.7633 81.9293 72.8052 81.0701C72.8492 79.3692 72.843 77.6745 72.8624 75.9756C72.843 74.2788 72.8461 72.581 72.8073 70.8853C72.7695 69.1874 72.7235 67.4906 72.6275 65.7938Z" fill="#3F9AC4"/>
<path d="M70.7681 85.3474C70.7425 85.3474 70.716 85.3473 70.6904 85.3443C71.1256 85.3249 71.4739 85.0317 71.6997 84.6946C71.9296 84.3493 72.0705 83.9529 72.1747 83.5505C72.3862 82.7445 72.4475 81.8996 72.4444 81.066L72.3933 75.9756C72.4117 74.2788 72.4087 72.581 72.4485 70.8852C72.4863 69.1874 72.5323 67.4906 72.6273 65.7938C72.7233 67.4906 72.7693 69.1874 72.8071 70.8852C72.8459 72.581 72.8428 74.2788 72.8622 75.9756C72.8428 77.6745 72.849 79.3692 72.805 81.0701C72.7632 81.9292 72.66 82.7904 72.3944 83.6158C72.2524 84.0244 72.0705 84.4259 71.7998 84.7692C71.5526 85.0889 71.1736 85.3474 70.7681 85.3474Z" fill="#E2FAFA"/>
<path d="M72.6274 57.5192C72.5753 57.1239 72.5518 56.7275 72.514 56.3311C72.4905 55.9317 72.4731 55.5446 72.4057 55.1635C72.3475 54.8193 72.2688 54.4791 72.1636 54.1501H72.6151C72.6948 54.4699 72.7448 54.7968 72.7632 55.1237C72.8072 55.945 72.7091 56.7234 72.6274 57.5192Z" fill="#E2FAFA"/>
<path d="M67.44 58.9504C67.44 58.9504 67.439 58.9504 67.438 58.9504V58.4815C67.439 58.4815 67.44 58.4815 67.44 58.4815C68.8365 58.4887 70.236 58.5305 71.6335 58.7154C70.236 58.9014 68.8365 58.9433 67.44 58.9504Z" fill="#E2FAFA"/>
<path d="M67.44 61.7873C67.44 61.7873 67.439 61.7873 67.438 61.7873V61.3184C67.439 61.3184 67.44 61.3184 67.44 61.3184C68.8365 61.3245 70.236 61.3674 71.6335 61.5523C70.236 61.7383 68.8365 61.7801 67.44 61.7873Z" fill="#E2FAFA"/>
<path d="M67.44 64.6231C67.44 64.6231 67.439 64.6231 67.438 64.6231V64.1542C67.439 64.1542 67.44 64.1542 67.44 64.1542C68.8365 64.1614 70.236 64.2032 71.6335 64.3892C70.236 64.5741 68.8365 64.616 67.44 64.6231Z" fill="#E2FAFA"/>
<path d="M74.5857 36.3108C74.5857 36.3108 74.5857 39.1108 74.5857 39.3866C74.5857 39.6614 73.5181 40.0742 72.3699 41.6044C71.2227 43.1337 71 44.805 71 45.9348C71 46.1422 71 46.3598 71 46.5855C71 47.178 71 47.8288 71 48.5255C71 48.6593 71.1154 48.7686 71.2544 48.7686H77.1824C77.3244 48.7686 77.4378 48.6593 77.4378 48.5234V46.5865V36.3108H74.5857Z" fill="#D6FEFD"/>
<path d="M77.1824 49.0751H71.2544C71.1154 49.0751 71 49.1854 71 49.3212C71 49.9393 71 50.588 71 51.2581C71 51.394 71.1154 51.5033 71.2544 51.5033H77.1824C77.3244 51.5033 77.4378 51.394 77.4378 51.2571V49.3212C77.4378 49.1864 77.3244 49.0751 77.1824 49.0751Z" fill="white"/>
<path d="M77.1824 51.8098H71.2544C71.1154 51.8098 71 51.9201 71 52.0539C71 52.6852 71 53.3339 71 53.9928C71 54.1266 71.1154 54.237 71.2544 54.237H77.1824C77.3244 54.237 77.4378 54.1266 77.4378 53.9918V52.0539C77.4378 51.9201 77.3244 51.8098 77.1824 51.8098Z" fill="white"/>
<path d="M77.1824 54.5434H71.2544C71.1154 54.5434 71 54.6527 71 54.7876C71 55.4291 71 56.0758 71 56.7255C71 62.4635 71 68.363 71 70.78C71 74.9418 72.5303 76.5947 74.1883 76.5947C75.8463 76.5947 75.9729 75.9817 77.4378 75.9817V56.7255V54.7876C77.4378 54.6527 77.3244 54.5434 77.1824 54.5434Z" fill="white"/>
<path d="M77.1825 51.8098C77.3245 51.8098 77.4379 51.9201 77.4379 52.0539V51.2571C77.4379 51.394 77.3245 51.5033 77.1825 51.5033H71.2544V51.8098H77.1825Z" fill="white"/>
<path d="M77.1825 54.5434C77.3245 54.5434 77.4379 54.6527 77.4379 54.7876V53.9918C77.4379 54.1266 77.3245 54.237 77.1825 54.237H71.2544V54.5434H77.1825Z" fill="white"/>
<path d="M77.1825 49.075C77.3245 49.075 77.4379 49.1864 77.4379 49.3212V48.5234C77.4379 48.6593 77.3245 48.7686 77.1825 48.7686H71.2544V49.075H77.1825Z" fill="white"/>
<path d="M80.2912 36.3108C80.2912 36.3108 80.2912 39.1108 80.2912 39.3866C80.2912 39.6614 81.3587 40.0742 82.508 41.6044C83.6541 43.1337 83.8779 44.805 83.8779 45.9348C83.8779 46.1422 83.8779 46.3598 83.8779 46.5855C83.8779 47.178 83.8779 47.8288 83.8779 48.5255C83.8779 48.6593 83.7634 48.7686 83.6235 48.7686H77.6934C77.5544 48.7686 77.438 48.6593 77.438 48.5234V46.5865V36.3108H80.2912Z" fill="#BDEEED"/>
<path d="M77.6934 49.0751H83.6235C83.7634 49.0751 83.8779 49.1854 83.8779 49.3212C83.8779 49.9393 83.8779 50.588 83.8779 51.2581C83.8779 51.394 83.7634 51.5033 83.6235 51.5033H77.6934C77.5544 51.5033 77.438 51.394 77.438 51.2571V49.3212C77.438 49.1864 77.5544 49.0751 77.6934 49.0751Z" fill="white"/>
<path d="M77.6934 51.8098H83.6235C83.7634 51.8098 83.8779 51.9201 83.8779 52.0539C83.8779 52.6852 83.8779 53.3339 83.8779 53.9928C83.8779 54.1266 83.7634 54.237 83.6235 54.237H77.6934C77.5544 54.237 77.438 54.1266 77.438 53.9918V52.0539C77.438 51.9201 77.5544 51.8098 77.6934 51.8098Z" fill="white"/>
<path d="M77.6934 54.5434H83.6235C83.7634 54.5434 83.8779 54.6527 83.8779 54.7876C83.8779 55.4291 83.8779 56.0758 83.8779 56.7255C83.8779 62.4635 83.8779 68.363 83.8779 70.78C83.8779 74.9418 82.3466 76.5947 80.6906 76.5947C79.0337 76.5947 78.9049 75.9817 77.438 75.9817V56.7255V54.7876C77.438 54.6527 77.5544 54.5434 77.6934 54.5434Z" fill="white"/>
<path d="M77.6934 51.8098C77.5544 51.8098 77.438 51.9201 77.438 52.0539V51.2571C77.438 51.394 77.5544 51.5033 77.6934 51.5033H83.6235V51.8098H77.6934Z" fill="white"/>
<path d="M77.6934 54.5434C77.5544 54.5434 77.438 54.6527 77.438 54.7876V53.9918C77.438 54.1266 77.5544 54.237 77.6934 54.237H83.6235V54.5434H77.6934Z" fill="white"/>
<path d="M77.6934 49.075C77.5544 49.075 77.438 49.1864 77.438 49.3212V48.5234C77.438 48.6593 77.5544 48.7686 77.6934 48.7686H83.6235V49.075H77.6934Z" fill="white"/>
<path d="M71 45.7448C71 45.9522 71 46.1697 71 46.3955C71 46.988 71 47.6388 71 48.3355C71 48.4693 71.1154 48.5786 71.2544 48.5786V48.885C71.1154 48.885 71 48.9954 71 49.1312C71 49.7493 71 50.398 71 51.0681C71 51.204 71.1154 51.3133 71.2544 51.3133V51.6197C71.1154 51.6197 71 51.7301 71 51.8639C71 52.4952 71 53.1439 71 53.8028C71 53.9366 71.1154 54.0469 71.2544 54.0469V54.3534C71.1154 54.3534 71 54.4627 71 54.5976C71 55.2391 71 55.8857 71 56.5354C71 62.2735 71 68.173 71 70.59C71 74.7518 72.5303 76.4046 74.1883 76.4046C75.8463 76.4046 75.9729 75.7917 77.4378 75.7917C78.9048 75.7917 79.0335 76.4046 80.6905 76.4046C82.3464 76.4046 83.8777 74.7518 83.8777 70.59C83.8777 68.173 83.8777 62.2735 83.8777 56.5354C83.8777 55.8857 83.8777 55.2391 83.8777 54.5976C83.8777 54.4627 83.7633 54.3534 83.6233 54.3534V54.0469C83.7633 54.0469 83.8777 53.9366 83.8777 53.8028C83.8777 53.1439 83.8777 52.4952 83.8777 51.8639C83.8777 51.7301 83.7633 51.6197 83.6233 51.6197V51.3133C83.7633 51.3133 83.8777 51.204 83.8777 51.0681C83.8777 50.398 83.8777 49.7493 83.8777 49.1312C83.8777 48.9954 83.7633 48.885 83.6233 48.885V48.5786C83.7633 48.5786 83.8777 48.4693 83.8777 48.3355C83.8777 47.6388 83.8777 46.988 83.8777 46.3955C83.8777 46.1697 83.8777 45.9522 83.8777 45.7448C83.8777 45.2381 83.8276 44.6221 83.6734 43.9601H71.2053C71.0511 44.6221 71 45.2381 71 45.7448Z" fill="#87E3FF"/>
<path d="M82.6273 55.7938C82.7233 57.4906 82.7693 59.1874 82.8071 60.8852C82.8459 62.581 82.8428 64.2788 82.8622 65.9756C82.8428 67.6745 82.849 69.3692 82.805 71.0701C82.7632 71.9292 82.66 72.7904 82.3944 73.6158C82.2524 74.0244 82.0705 74.4259 81.7998 74.7691C81.5373 75.1093 81.1256 75.38 80.6904 75.3443C81.1256 75.3249 81.4739 75.0317 81.6997 74.6946C81.9296 74.3493 82.0705 73.9529 82.1747 73.5504C82.3862 72.7444 82.4475 71.8996 82.4444 71.066L82.3933 65.9756C82.4117 64.2788 82.4087 62.581 82.4485 60.8852C82.4863 59.1874 82.5323 57.4906 82.6273 55.7938Z" fill="white"/>
<path d="M78.8489 39.3866C78.8969 39.7871 79.1043 40.1263 79.4077 40.352C79.6968 40.5911 80.0564 40.7688 80.3914 40.9997C81.0677 41.4461 81.6541 42.0703 82.0678 42.7782C82.4785 43.4974 82.7165 44.3095 82.7635 45.1237C82.8074 45.945 82.7093 46.7234 82.6276 47.5192C82.5755 47.1239 82.552 46.7275 82.5142 46.3311C82.4907 45.9317 82.4734 45.5446 82.4059 45.1635C82.2782 44.4035 82.0474 43.6669 81.6622 43.0131C81.2853 42.3471 80.7704 41.7832 80.1759 41.2867C79.8848 41.0334 79.5425 40.8209 79.2514 40.5175C78.9674 40.2131 78.7876 39.7861 78.8489 39.3866Z" fill="white"/>
<path d="M77.7513 34C77.5796 34 77.2977 34 77.1271 34H74.2657C74.0941 34 73.9531 34.14 73.9531 34.3126V36.7888C73.9531 36.9605 74.0941 37.1014 74.2657 37.1014H77.1271C77.2977 37.1014 77.5796 37.1014 77.7513 37.1014H80.6126C80.7843 37.1014 80.9232 36.9605 80.9232 36.7888V34.3126C80.9232 34.14 80.7843 34 80.6126 34H77.7513Z" fill="white"/>
<path d="M77.4379 37.8308H73.7256V37.363H77.4379V37.8308Z" fill="#276B8A"/>
<path d="M81.1524 37.8308H77.438V37.363H81.1524V37.8308Z" fill="#276B8A"/>
<path d="M73.2456 48.7154C74.6431 48.5316 76.0416 48.4897 77.4401 48.4815C78.8366 48.4887 80.2361 48.5305 81.6336 48.7154C80.2361 48.9014 78.8366 48.9433 77.4401 48.9504C76.0416 48.9422 74.6431 48.9003 73.2456 48.7154Z" fill="white"/>
<path d="M73.2456 51.5523C74.6431 51.3685 76.0416 51.3266 77.4401 51.3184C78.8366 51.3245 80.2361 51.3674 81.6336 51.5523C80.2361 51.7383 78.8366 51.7801 77.4401 51.7873C76.0416 51.7791 74.6431 51.7372 73.2456 51.5523Z" fill="white"/>
<path d="M73.2456 54.3892C74.6431 54.2043 76.0416 54.1624 77.4401 54.1542C78.8366 54.1614 80.2361 54.2032 81.6336 54.3892C80.2361 54.5741 78.8366 54.616 77.4401 54.6231C76.0416 54.6149 74.6431 54.573 73.2456 54.3892Z" fill="white"/>
<path d="M80.6906 76.5947C79.0337 76.5947 78.9049 75.7881 77.438 75.7881V54.6231C77.439 54.6231 77.44 54.6231 77.44 54.6231C78.8365 54.616 80.236 54.5741 81.6335 54.3892C80.236 54.2033 78.8365 54.1614 77.44 54.1542C77.44 54.1542 77.439 54.1542 77.438 54.1542V51.7873C77.439 51.7873 77.44 51.7873 77.44 51.7873C78.8365 51.7801 80.236 51.7383 81.6335 51.5523C80.236 51.3674 78.8365 51.3245 77.44 51.3184C77.44 51.3184 77.439 51.3184 77.438 51.3184V48.9504C77.439 48.9504 77.44 48.9504 77.44 48.9504C78.8365 48.9433 80.236 48.9014 81.6335 48.7155C80.236 48.5306 78.8365 48.4887 77.44 48.4815C77.44 48.4815 77.439 48.4815 77.438 48.4815V44.1502H82.1637C82.2689 44.4791 82.3476 44.8193 82.4058 45.1635C82.4732 45.5446 82.4906 45.9317 82.5141 46.3312C82.5519 46.7275 82.5754 47.1239 82.6275 47.5192C82.7092 46.7235 82.8073 45.945 82.7633 45.1237C82.745 44.7968 82.6949 44.4699 82.6152 44.1502H83.6736C83.8278 44.8121 83.8779 45.4281 83.8779 45.9348C83.8779 46.1422 83.8779 46.3598 83.8779 46.5855C83.8779 47.178 83.8779 47.8288 83.8779 48.5255C83.8779 48.6593 83.7634 48.7686 83.6235 48.7686V49.0751C83.7634 49.0751 83.8779 49.1854 83.8779 49.3213C83.8779 49.9393 83.8779 50.588 83.8779 51.2581C83.8779 51.394 83.7634 51.5033 83.6235 51.5033V51.8098C83.7634 51.8098 83.8779 51.9201 83.8779 52.0539C83.8779 52.6852 83.8779 53.3339 83.8779 53.9928C83.8779 54.1266 83.7634 54.237 83.6235 54.237V54.5434C83.7634 54.5434 83.8779 54.6527 83.8779 54.7876C83.8779 55.4291 83.8779 56.0758 83.8779 56.7255C83.8779 62.4635 83.8779 68.363 83.8779 70.78C83.8779 74.9418 82.3466 76.5947 80.6906 76.5947ZM82.6275 55.7938C82.5325 57.4906 82.4865 59.1874 82.4487 60.8853C82.4089 62.581 82.4119 64.2788 82.3935 65.9756L82.4446 71.066C82.4477 71.8996 82.3864 72.7445 82.1749 73.5505C82.0707 73.953 81.9298 74.3493 81.6999 74.6946C81.4741 75.0317 81.1258 75.3249 80.6906 75.3443C80.7162 75.3474 80.7427 75.3474 80.7682 75.3474C81.1738 75.3474 81.5528 75.0889 81.8 74.7692C82.0707 74.4259 82.2526 74.0244 82.3946 73.6158C82.6602 72.7904 82.7633 71.9293 82.8052 71.0701C82.8492 69.3692 82.843 67.6745 82.8624 65.9756C82.843 64.2788 82.8461 62.581 82.8073 60.8853C82.7695 59.1874 82.7235 57.4906 82.6275 55.7938Z" fill="#3F9AC4"/>
<path d="M80.7681 75.3474C80.7425 75.3474 80.716 75.3473 80.6904 75.3443C81.1256 75.3249 81.4739 75.0317 81.6997 74.6946C81.9296 74.3493 82.0705 73.9529 82.1747 73.5505C82.3862 72.7445 82.4475 71.8996 82.4444 71.066L82.3933 65.9756C82.4117 64.2788 82.4087 62.581 82.4485 60.8852C82.4863 59.1874 82.5323 57.4906 82.6273 55.7938C82.7233 57.4906 82.7693 59.1874 82.8071 60.8852C82.8459 62.581 82.8428 64.2788 82.8622 65.9756C82.8428 67.6745 82.849 69.3692 82.805 71.0701C82.7632 71.9292 82.66 72.7904 82.3944 73.6158C82.2524 74.0244 82.0705 74.4259 81.7998 74.7692C81.5526 75.0889 81.1736 75.3474 80.7681 75.3474Z" fill="#E2FAFA"/>
<path d="M82.6274 47.5192C82.5753 47.1239 82.5518 46.7275 82.514 46.3311C82.4905 45.9317 82.4731 45.5446 82.4057 45.1635C82.3475 44.8193 82.2688 44.4791 82.1636 44.1501H82.6151C82.6948 44.4699 82.7448 44.7968 82.7632 45.1237C82.8072 45.945 82.7091 46.7234 82.6274 47.5192Z" fill="#E2FAFA"/>
<path d="M77.44 48.9504C77.44 48.9504 77.439 48.9504 77.438 48.9504V48.4815C77.439 48.4815 77.44 48.4815 77.44 48.4815C78.8365 48.4887 80.236 48.5305 81.6335 48.7154C80.236 48.9014 78.8365 48.9433 77.44 48.9504Z" fill="#E2FAFA"/>
<path d="M77.44 51.7873C77.44 51.7873 77.439 51.7873 77.438 51.7873V51.3184C77.439 51.3184 77.44 51.3184 77.44 51.3184C78.8365 51.3245 80.236 51.3674 81.6335 51.5523C80.236 51.7383 78.8365 51.7801 77.44 51.7873Z" fill="#E2FAFA"/>
<path d="M77.44 54.6231C77.44 54.6231 77.439 54.6231 77.438 54.6231V54.1542C77.439 54.1542 77.44 54.1542 77.44 54.1542C78.8365 54.1614 80.236 54.2032 81.6335 54.3892C80.236 54.5741 78.8365 54.616 77.44 54.6231Z" fill="#E2FAFA"/>
<path d="M90.5857 38.3108C90.5857 38.3108 90.5857 41.1108 90.5857 41.3866C90.5857 41.6614 89.5181 42.0742 88.3699 43.6044C87.2227 45.1337 87 46.805 87 47.9348C87 48.1422 87 48.3598 87 48.5855C87 49.178 87 49.8288 87 50.5255C87 50.6593 87.1154 50.7686 87.2544 50.7686H93.1824C93.3244 50.7686 93.4378 50.6593 93.4378 50.5234V48.5865V38.3108H90.5857Z" fill="#D6FEFD"/>
<path d="M93.1824 51.0751H87.2544C87.1154 51.0751 87 51.1854 87 51.3212C87 51.9393 87 52.588 87 53.2581C87 53.394 87.1154 53.5033 87.2544 53.5033H93.1824C93.3244 53.5033 93.4378 53.394 93.4378 53.2571V51.3212C93.4378 51.1864 93.3244 51.0751 93.1824 51.0751Z" fill="white"/>
<path d="M93.1824 53.8098H87.2544C87.1154 53.8098 87 53.9201 87 54.0539C87 54.6852 87 55.3339 87 55.9928C87 56.1266 87.1154 56.237 87.2544 56.237H93.1824C93.3244 56.237 93.4378 56.1266 93.4378 55.9918V54.0539C93.4378 53.9201 93.3244 53.8098 93.1824 53.8098Z" fill="white"/>
<path d="M93.1824 56.5434H87.2544C87.1154 56.5434 87 56.6527 87 56.7876C87 57.4291 87 58.0758 87 58.7255C87 64.4635 87 70.363 87 72.78C87 76.9418 88.5303 78.5947 90.1883 78.5947C91.8463 78.5947 91.9729 77.9817 93.4378 77.9817V58.7255V56.7876C93.4378 56.6527 93.3244 56.5434 93.1824 56.5434Z" fill="white"/>
<path d="M93.1825 53.8098C93.3245 53.8098 93.4379 53.9201 93.4379 54.0539V53.2571C93.4379 53.394 93.3245 53.5033 93.1825 53.5033H87.2544V53.8098H93.1825Z" fill="white"/>
<path d="M93.1825 56.5434C93.3245 56.5434 93.4379 56.6527 93.4379 56.7876V55.9918C93.4379 56.1266 93.3245 56.237 93.1825 56.237H87.2544V56.5434H93.1825Z" fill="white"/>
<path d="M93.1825 51.075C93.3245 51.075 93.4379 51.1864 93.4379 51.3212V50.5234C93.4379 50.6593 93.3245 50.7686 93.1825 50.7686H87.2544V51.075H93.1825Z" fill="white"/>
<path d="M96.2912 38.3108C96.2912 38.3108 96.2912 41.1108 96.2912 41.3866C96.2912 41.6614 97.3587 42.0742 98.508 43.6044C99.6541 45.1337 99.8779 46.805 99.8779 47.9348C99.8779 48.1422 99.8779 48.3598 99.8779 48.5855C99.8779 49.178 99.8779 49.8288 99.8779 50.5255C99.8779 50.6593 99.7634 50.7686 99.6235 50.7686H93.6934C93.5544 50.7686 93.438 50.6593 93.438 50.5234V48.5865V38.3108H96.2912Z" fill="#BDEEED"/>
<path d="M93.6934 51.0751H99.6235C99.7634 51.0751 99.8779 51.1854 99.8779 51.3212C99.8779 51.9393 99.8779 52.588 99.8779 53.2581C99.8779 53.394 99.7634 53.5033 99.6235 53.5033H93.6934C93.5544 53.5033 93.438 53.394 93.438 53.2571V51.3212C93.438 51.1864 93.5544 51.0751 93.6934 51.0751Z" fill="white"/>
<path d="M93.6934 53.8098H99.6235C99.7634 53.8098 99.8779 53.9201 99.8779 54.0539C99.8779 54.6852 99.8779 55.3339 99.8779 55.9928C99.8779 56.1266 99.7634 56.237 99.6235 56.237H93.6934C93.5544 56.237 93.438 56.1266 93.438 55.9918V54.0539C93.438 53.9201 93.5544 53.8098 93.6934 53.8098Z" fill="white"/>
<path d="M93.6934 56.5434H99.6235C99.7634 56.5434 99.8779 56.6527 99.8779 56.7876C99.8779 57.4291 99.8779 58.0758 99.8779 58.7255C99.8779 64.4635 99.8779 70.363 99.8779 72.78C99.8779 76.9418 98.3466 78.5947 96.6906 78.5947C95.0337 78.5947 94.9049 77.9817 93.438 77.9817V58.7255V56.7876C93.438 56.6527 93.5544 56.5434 93.6934 56.5434Z" fill="white"/>
<path d="M93.6934 53.8098C93.5544 53.8098 93.438 53.9201 93.438 54.0539V53.2571C93.438 53.394 93.5544 53.5033 93.6934 53.5033H99.6235V53.8098H93.6934Z" fill="white"/>
<path d="M93.6934 56.5434C93.5544 56.5434 93.438 56.6527 93.438 56.7876V55.9918C93.438 56.1266 93.5544 56.237 93.6934 56.237H99.6235V56.5434H93.6934Z" fill="white"/>
<path d="M93.6934 51.075C93.5544 51.075 93.438 51.1864 93.438 51.3212V50.5234C93.438 50.6593 93.5544 50.7686 93.6934 50.7686H99.6235V51.075H93.6934Z" fill="white"/>
<path d="M87 47.7448C87 47.9522 87 48.1697 87 48.3955C87 48.988 87 49.6388 87 50.3355C87 50.4693 87.1154 50.5786 87.2544 50.5786V50.885C87.1154 50.885 87 50.9954 87 51.1312C87 51.7493 87 52.398 87 53.0681C87 53.204 87.1154 53.3133 87.2544 53.3133V53.6197C87.1154 53.6197 87 53.7301 87 53.8639C87 54.4952 87 55.1439 87 55.8028C87 55.9366 87.1154 56.0469 87.2544 56.0469V56.3534C87.1154 56.3534 87 56.4627 87 56.5976C87 57.2391 87 57.8857 87 58.5354C87 64.2735 87 70.173 87 72.59C87 76.7518 88.5303 78.4046 90.1883 78.4046C91.8463 78.4046 91.9729 77.7917 93.4378 77.7917C94.9048 77.7917 95.0335 78.4046 96.6905 78.4046C98.3464 78.4046 99.8777 76.7518 99.8777 72.59C99.8777 70.173 99.8777 64.2735 99.8777 58.5354C99.8777 57.8857 99.8777 57.2391 99.8777 56.5976C99.8777 56.4627 99.7633 56.3534 99.6233 56.3534V56.0469C99.7633 56.0469 99.8777 55.9366 99.8777 55.8028C99.8777 55.1439 99.8777 54.4952 99.8777 53.8639C99.8777 53.7301 99.7633 53.6197 99.6233 53.6197V53.3133C99.7633 53.3133 99.8777 53.204 99.8777 53.0681C99.8777 52.398 99.8777 51.7493 99.8777 51.1312C99.8777 50.9954 99.7633 50.885 99.6233 50.885V50.5786C99.7633 50.5786 99.8777 50.4693 99.8777 50.3355C99.8777 49.6388 99.8777 48.988 99.8777 48.3955C99.8777 48.1697 99.8777 47.9522 99.8777 47.7448C99.8777 47.2381 99.8276 46.6221 99.6734 45.9601H87.2053C87.0511 46.6221 87 47.2381 87 47.7448Z" fill="#87E3FF"/>
<path d="M94.8489 41.3866C94.8969 41.7871 95.1043 42.1263 95.4077 42.352C95.6968 42.5911 96.0564 42.7688 96.3914 42.9997C97.0677 43.4461 97.6541 44.0703 98.0678 44.7782C98.4785 45.4974 98.7165 46.3095 98.7635 47.1237C98.8074 47.945 98.7093 48.7234 98.6276 49.5192C98.5755 49.1239 98.552 48.7275 98.5142 48.3311C98.4907 47.9317 98.4734 47.5446 98.4059 47.1635C98.2782 46.4035 98.0474 45.6669 97.6622 45.0131C97.2853 44.3471 96.7704 43.7832 96.1759 43.2867C95.8848 43.0334 95.5425 42.8209 95.2514 42.5175C94.9674 42.2131 94.7876 41.7861 94.8489 41.3866Z" fill="white"/>
<path d="M93.7513 36C93.5796 36 93.2977 36 93.1271 36H90.2657C90.0941 36 89.9531 36.14 89.9531 36.3126V38.7888C89.9531 38.9605 90.0941 39.1014 90.2657 39.1014H93.1271C93.2977 39.1014 93.5796 39.1014 93.7513 39.1014H96.6126C96.7843 39.1014 96.9232 38.9605 96.9232 38.7888V36.3126C96.9232 36.14 96.7843 36 96.6126 36H93.7513Z" fill="white"/>
<path d="M93.4379 39.8308H89.7256V39.363H93.4379V39.8308Z" fill="#276B8A"/>
<path d="M97.1524 39.8308H93.438V39.363H97.1524V39.8308Z" fill="#276B8A"/>
<path d="M89.2456 50.7154C90.6431 50.5316 92.0416 50.4897 93.4401 50.4815C94.8366 50.4887 96.2361 50.5305 97.6336 50.7154C96.2361 50.9014 94.8366 50.9433 93.4401 50.9504C92.0416 50.9422 90.6431 50.9003 89.2456 50.7154Z" fill="white"/>
<path d="M89.2456 53.5523C90.6431 53.3685 92.0416 53.3266 93.4401 53.3184C94.8366 53.3245 96.2361 53.3674 97.6336 53.5523C96.2361 53.7383 94.8366 53.7801 93.4401 53.7873C92.0416 53.7791 90.6431 53.7372 89.2456 53.5523Z" fill="white"/>
<path d="M89.2456 56.3892C90.6431 56.2043 92.0416 56.1624 93.4401 56.1542C94.8366 56.1614 96.2361 56.2032 97.6336 56.3892C96.2361 56.5741 94.8366 56.616 93.4401 56.6231C92.0416 56.6149 90.6431 56.573 89.2456 56.3892Z" fill="white"/>
<path d="M96.6906 78.5947C95.0337 78.5947 94.9049 77.7881 93.438 77.7881V56.6231C93.439 56.6231 93.44 56.6231 93.44 56.6231C94.8365 56.616 96.236 56.5741 97.6335 56.3892C96.236 56.2033 94.8365 56.1614 93.44 56.1542C93.44 56.1542 93.439 56.1542 93.438 56.1542V53.7873C93.439 53.7873 93.44 53.7873 93.44 53.7873C94.8365 53.7801 96.236 53.7383 97.6335 53.5523C96.236 53.3674 94.8365 53.3245 93.44 53.3184C93.44 53.3184 93.439 53.3184 93.438 53.3184V50.9504C93.439 50.9504 93.44 50.9504 93.44 50.9504C94.8365 50.9433 96.236 50.9014 97.6335 50.7155C96.236 50.5306 94.8365 50.4887 93.44 50.4815C93.44 50.4815 93.439 50.4815 93.438 50.4815V46.1502H98.1637C98.2689 46.4791 98.3476 46.8193 98.4058 47.1635C98.4732 47.5446 98.4906 47.9317 98.5141 48.3312C98.5519 48.7275 98.5754 49.1239 98.6275 49.5192C98.7092 48.7235 98.8073 47.945 98.7633 47.1237C98.745 46.7968 98.6949 46.4699 98.6152 46.1502H99.6736C99.8278 46.8121 99.8779 47.4281 99.8779 47.9348C99.8779 48.1422 99.8779 48.3598 99.8779 48.5855C99.8779 49.178 99.8779 49.8288 99.8779 50.5255C99.8779 50.6593 99.7634 50.7686 99.6235 50.7686V51.0751C99.7634 51.0751 99.8779 51.1854 99.8779 51.3213C99.8779 51.9393 99.8779 52.588 99.8779 53.2581C99.8779 53.394 99.7634 53.5033 99.6235 53.5033V53.8098C99.7634 53.8098 99.8779 53.9201 99.8779 54.0539C99.8779 54.6852 99.8779 55.3339 99.8779 55.9928C99.8779 56.1266 99.7634 56.237 99.6235 56.237V56.5434C99.7634 56.5434 99.8779 56.6527 99.8779 56.7876C99.8779 57.4291 99.8779 58.0758 99.8779 58.7255C99.8779 64.4635 99.8779 70.363 99.8779 72.78C99.8779 76.9418 98.3466 78.5947 96.6906 78.5947ZM98.6275 57.7938C98.5325 59.4906 98.4865 61.1874 98.4487 62.8853C98.4089 64.581 98.4119 66.2788 98.3935 67.9756L98.4446 73.066C98.4477 73.8996 98.3864 74.7445 98.1749 75.5505C98.0707 75.953 97.9298 76.3493 97.6999 76.6946C97.4741 77.0317 97.1258 77.3249 96.6906 77.3443C96.7162 77.3474 96.7427 77.3474 96.7682 77.3474C97.1738 77.3474 97.5528 77.0889 97.8 76.7692C98.0707 76.4259 98.2526 76.0244 98.3946 75.6158C98.6602 74.7904 98.7633 73.9293 98.8052 73.0701C98.8492 71.3692 98.843 69.6745 98.8624 67.9756C98.843 66.2788 98.8461 64.581 98.8073 62.8853C98.7695 61.1874 98.7235 59.4906 98.6275 57.7938Z" fill="#3F9AC4"/>
<path d="M93.44 50.9504C93.44 50.9504 93.439 50.9504 93.438 50.9504V50.4815C93.439 50.4815 93.44 50.4815 93.44 50.4815C94.8365 50.4887 96.236 50.5305 97.6335 50.7154C96.236 50.9014 94.8365 50.9433 93.44 50.9504Z" fill="#E2FAFA"/>
<path d="M93.44 53.7873C93.44 53.7873 93.439 53.7873 93.438 53.7873V53.3184C93.439 53.3184 93.44 53.3184 93.44 53.3184C94.8365 53.3245 96.236 53.3674 97.6335 53.5523C96.236 53.7383 94.8365 53.7801 93.44 53.7873Z" fill="#E2FAFA"/>
<path d="M93.44 56.6231C93.44 56.6231 93.439 56.6231 93.438 56.6231V56.1542C93.439 56.1542 93.44 56.1542 93.44 56.1542C94.8365 56.1614 96.236 56.2032 97.6335 56.3892C96.236 56.5741 94.8365 56.616 93.44 56.6231Z" fill="#E2FAFA"/>
<path d="M84.5857 46.3108C84.5857 46.3108 84.5857 49.1108 84.5857 49.3866C84.5857 49.6614 83.5181 50.0742 82.3699 51.6044C81.2227 53.1337 81 54.805 81 55.9348C81 56.1422 81 56.3598 81 56.5855C81 57.178 81 57.8288 81 58.5255C81 58.6593 81.1154 58.7686 81.2544 58.7686H87.1824C87.3244 58.7686 87.4378 58.6593 87.4378 58.5234V56.5865V46.3108H84.5857Z" fill="#D6FEFD"/>
<path d="M87.1824 59.0751H81.2544C81.1154 59.0751 81 59.1854 81 59.3212C81 59.9393 81 60.588 81 61.2581C81 61.394 81.1154 61.5033 81.2544 61.5033H87.1824C87.3244 61.5033 87.4378 61.394 87.4378 61.2571V59.3212C87.4378 59.1864 87.3244 59.0751 87.1824 59.0751Z" fill="white"/>
<path d="M87.1824 61.8098H81.2544C81.1154 61.8098 81 61.9201 81 62.0539C81 62.6852 81 63.3339 81 63.9928C81 64.1266 81.1154 64.237 81.2544 64.237H87.1824C87.3244 64.237 87.4378 64.1266 87.4378 63.9918V62.0539C87.4378 61.9201 87.3244 61.8098 87.1824 61.8098Z" fill="white"/>
<path d="M87.1824 64.5434H81.2544C81.1154 64.5434 81 64.6527 81 64.7876C81 65.4291 81 66.0758 81 66.7255C81 72.4635 81 78.363 81 80.78C81 84.9418 82.5303 86.5947 84.1883 86.5947C85.8463 86.5947 85.9729 85.9817 87.4378 85.9817V66.7255V64.7876C87.4378 64.6527 87.3244 64.5434 87.1824 64.5434Z" fill="white"/>
<path d="M87.1825 61.8098C87.3245 61.8098 87.4379 61.9201 87.4379 62.0539V61.2571C87.4379 61.394 87.3245 61.5033 87.1825 61.5033H81.2544V61.8098H87.1825Z" fill="white"/>
<path d="M87.1825 64.5434C87.3245 64.5434 87.4379 64.6527 87.4379 64.7876V63.9918C87.4379 64.1266 87.3245 64.237 87.1825 64.237H81.2544V64.5434H87.1825Z" fill="white"/>
<path d="M87.1825 59.075C87.3245 59.075 87.4379 59.1864 87.4379 59.3212V58.5234C87.4379 58.6593 87.3245 58.7686 87.1825 58.7686H81.2544V59.075H87.1825Z" fill="white"/>
<path d="M90.2912 46.3108C90.2912 46.3108 90.2912 49.1108 90.2912 49.3866C90.2912 49.6614 91.3587 50.0742 92.508 51.6044C93.6541 53.1337 93.8779 54.805 93.8779 55.9348C93.8779 56.1422 93.8779 56.3598 93.8779 56.5855C93.8779 57.178 93.8779 57.8288 93.8779 58.5255C93.8779 58.6593 93.7634 58.7686 93.6235 58.7686H87.6934C87.5544 58.7686 87.438 58.6593 87.438 58.5234V56.5865V46.3108H90.2912Z" fill="#BDEEED"/>
<path d="M87.6934 59.0751H93.6235C93.7634 59.0751 93.8779 59.1854 93.8779 59.3212C93.8779 59.9393 93.8779 60.588 93.8779 61.2581C93.8779 61.394 93.7634 61.5033 93.6235 61.5033H87.6934C87.5544 61.5033 87.438 61.394 87.438 61.2571V59.3212C87.438 59.1864 87.5544 59.0751 87.6934 59.0751Z" fill="white"/>
<path d="M87.6934 61.8098H93.6235C93.7634 61.8098 93.8779 61.9201 93.8779 62.0539C93.8779 62.6852 93.8779 63.3339 93.8779 63.9928C93.8779 64.1266 93.7634 64.237 93.6235 64.237H87.6934C87.5544 64.237 87.438 64.1266 87.438 63.9918V62.0539C87.438 61.9201 87.5544 61.8098 87.6934 61.8098Z" fill="white"/>
<path d="M87.6934 64.5434H93.6235C93.7634 64.5434 93.8779 64.6527 93.8779 64.7876C93.8779 65.4291 93.8779 66.0758 93.8779 66.7255C93.8779 72.4635 93.8779 78.363 93.8779 80.78C93.8779 84.9418 92.3466 86.5947 90.6906 86.5947C89.0337 86.5947 88.9049 85.9817 87.438 85.9817V66.7255V64.7876C87.438 64.6527 87.5544 64.5434 87.6934 64.5434Z" fill="white"/>
<path d="M87.6934 61.8098C87.5544 61.8098 87.438 61.9201 87.438 62.0539V61.2571C87.438 61.394 87.5544 61.5033 87.6934 61.5033H93.6235V61.8098H87.6934Z" fill="white"/>
<path d="M87.6934 64.5434C87.5544 64.5434 87.438 64.6527 87.438 64.7876V63.9918C87.438 64.1266 87.5544 64.237 87.6934 64.237H93.6235V64.5434H87.6934Z" fill="white"/>
<path d="M87.6934 59.075C87.5544 59.075 87.438 59.1864 87.438 59.3212V58.5234C87.438 58.6593 87.5544 58.7686 87.6934 58.7686H93.6235V59.075H87.6934Z" fill="white"/>
<path d="M81 55.7448C81 55.9522 81 56.1697 81 56.3955C81 56.988 81 57.6388 81 58.3355C81 58.4693 81.1154 58.5786 81.2544 58.5786V58.885C81.1154 58.885 81 58.9954 81 59.1312C81 59.7493 81 60.398 81 61.0681C81 61.204 81.1154 61.3133 81.2544 61.3133V61.6197C81.1154 61.6197 81 61.7301 81 61.8639C81 62.4952 81 63.1439 81 63.8028C81 63.9366 81.1154 64.0469 81.2544 64.0469V64.3534C81.1154 64.3534 81 64.4627 81 64.5976C81 65.2391 81 65.8857 81 66.5354C81 72.2735 81 78.173 81 80.59C81 84.7518 82.5303 86.4046 84.1883 86.4046C85.8463 86.4046 85.9729 85.7917 87.4378 85.7917C88.9048 85.7917 89.0335 86.4046 90.6905 86.4046C92.3464 86.4046 93.8777 84.7518 93.8777 80.59C93.8777 78.173 93.8777 72.2735 93.8777 66.5354C93.8777 65.8857 93.8777 65.2391 93.8777 64.5976C93.8777 64.4627 93.7633 64.3534 93.6233 64.3534V64.0469C93.7633 64.0469 93.8777 63.9366 93.8777 63.8028C93.8777 63.1439 93.8777 62.4952 93.8777 61.8639C93.8777 61.7301 93.7633 61.6197 93.6233 61.6197V61.3133C93.7633 61.3133 93.8777 61.204 93.8777 61.0681C93.8777 60.398 93.8777 59.7493 93.8777 59.1312C93.8777 58.9954 93.7633 58.885 93.6233 58.885V58.5786C93.7633 58.5786 93.8777 58.4693 93.8777 58.3355C93.8777 57.6388 93.8777 56.988 93.8777 56.3955C93.8777 56.1697 93.8777 55.9522 93.8777 55.7448C93.8777 55.2381 93.8276 54.6221 93.6734 53.9601H81.2053C81.0511 54.6221 81 55.2381 81 55.7448Z" fill="#87E3FF"/>
<path d="M92.6273 65.7938C92.7233 67.4906 92.7693 69.1874 92.8071 70.8852C92.8459 72.581 92.8428 74.2788 92.8622 75.9756C92.8428 77.6745 92.849 79.3692 92.805 81.0701C92.7632 81.9292 92.66 82.7904 92.3944 83.6158C92.2524 84.0244 92.0705 84.4259 91.7998 84.7691C91.5373 85.1093 91.1256 85.38 90.6904 85.3443C91.1256 85.3249 91.4739 85.0317 91.6997 84.6946C91.9296 84.3493 92.0705 83.9529 92.1747 83.5504C92.3862 82.7444 92.4475 81.8996 92.4444 81.066L92.3933 75.9756C92.4117 74.2788 92.4087 72.581 92.4485 70.8852C92.4863 69.1874 92.5323 67.4906 92.6273 65.7938Z" fill="white"/>
<path d="M88.8489 49.3866C88.8969 49.7871 89.1043 50.1263 89.4077 50.352C89.6968 50.5911 90.0564 50.7688 90.3914 50.9997C91.0677 51.4461 91.6541 52.0703 92.0678 52.7782C92.4785 53.4974 92.7165 54.3095 92.7635 55.1237C92.8074 55.945 92.7093 56.7234 92.6276 57.5192C92.5755 57.1239 92.552 56.7275 92.5142 56.3311C92.4907 55.9317 92.4734 55.5446 92.4059 55.1635C92.2782 54.4035 92.0474 53.6669 91.6622 53.0131C91.2853 52.3471 90.7704 51.7832 90.1759 51.2867C89.8848 51.0334 89.5425 50.8209 89.2514 50.5175C88.9674 50.2131 88.7876 49.7861 88.8489 49.3866Z" fill="white"/>
<path d="M87.7513 44C87.5796 44 87.2977 44 87.1271 44H84.2657C84.0941 44 83.9531 44.14 83.9531 44.3126V46.7888C83.9531 46.9605 84.0941 47.1014 84.2657 47.1014H87.1271C87.2977 47.1014 87.5796 47.1014 87.7513 47.1014H90.6126C90.7843 47.1014 90.9232 46.9605 90.9232 46.7888V44.3126C90.9232 44.14 90.7843 44 90.6126 44H87.7513Z" fill="white"/>
<path d="M87.4379 47.8308H83.7256V47.363H87.4379V47.8308Z" fill="#276B8A"/>
<path d="M91.1524 47.8308H87.438V47.363H91.1524V47.8308Z" fill="#276B8A"/>
<path d="M83.2456 58.7154C84.6431 58.5316 86.0416 58.4897 87.4401 58.4815C88.8366 58.4887 90.2361 58.5305 91.6336 58.7154C90.2361 58.9014 88.8366 58.9433 87.4401 58.9504C86.0416 58.9422 84.6431 58.9003 83.2456 58.7154Z" fill="white"/>
<path d="M83.2456 61.5523C84.6431 61.3685 86.0416 61.3266 87.4401 61.3184C88.8366 61.3245 90.2361 61.3674 91.6336 61.5523C90.2361 61.7383 88.8366 61.7801 87.4401 61.7873C86.0416 61.7791 84.6431 61.7372 83.2456 61.5523Z" fill="white"/>
<path d="M83.2456 64.3892C84.6431 64.2043 86.0416 64.1624 87.4401 64.1542C88.8366 64.1614 90.2361 64.2032 91.6336 64.3892C90.2361 64.5741 88.8366 64.616 87.4401 64.6231C86.0416 64.6149 84.6431 64.573 83.2456 64.3892Z" fill="white"/>
<path d="M90.6906 86.5947C89.0337 86.5947 88.9049 85.7881 87.438 85.7881V64.6231C87.439 64.6231 87.44 64.6231 87.44 64.6231C88.8365 64.616 90.236 64.5741 91.6335 64.3892C90.236 64.2033 88.8365 64.1614 87.44 64.1542C87.44 64.1542 87.439 64.1542 87.438 64.1542V61.7873C87.439 61.7873 87.44 61.7873 87.44 61.7873C88.8365 61.7801 90.236 61.7383 91.6335 61.5523C90.236 61.3674 88.8365 61.3245 87.44 61.3184C87.44 61.3184 87.439 61.3184 87.438 61.3184V58.9504C87.439 58.9504 87.44 58.9504 87.44 58.9504C88.8365 58.9433 90.236 58.9014 91.6335 58.7155C90.236 58.5306 88.8365 58.4887 87.44 58.4815C87.44 58.4815 87.439 58.4815 87.438 58.4815V54.1502H92.1637C92.2689 54.4791 92.3476 54.8193 92.4058 55.1635C92.4732 55.5446 92.4906 55.9317 92.5141 56.3312C92.5519 56.7275 92.5754 57.1239 92.6275 57.5192C92.7092 56.7235 92.8073 55.945 92.7633 55.1237C92.745 54.7968 92.6949 54.4699 92.6152 54.1502H93.6736C93.8278 54.8121 93.8779 55.4281 93.8779 55.9348C93.8779 56.1422 93.8779 56.3598 93.8779 56.5855C93.8779 57.178 93.8779 57.8288 93.8779 58.5255C93.8779 58.6593 93.7634 58.7686 93.6235 58.7686V59.0751C93.7634 59.0751 93.8779 59.1854 93.8779 59.3213C93.8779 59.9393 93.8779 60.588 93.8779 61.2581C93.8779 61.394 93.7634 61.5033 93.6235 61.5033V61.8098C93.7634 61.8098 93.8779 61.9201 93.8779 62.0539C93.8779 62.6852 93.8779 63.3339 93.8779 63.9928C93.8779 64.1266 93.7634 64.237 93.6235 64.237V64.5434C93.7634 64.5434 93.8779 64.6527 93.8779 64.7876C93.8779 65.4291 93.8779 66.0758 93.8779 66.7255C93.8779 72.4635 93.8779 78.363 93.8779 80.78C93.8779 84.9418 92.3466 86.5947 90.6906 86.5947ZM92.8462 74C92.7512 75.6968 90.0378 73.3022 90 75C89.9602 76.6958 92.4119 74.2788 92.3935 75.9756L92.4446 81.066C92.4477 81.8996 92.3864 82.7445 92.1749 83.5505C92.0707 83.953 91.9298 84.3493 91.6999 84.6946C91.4741 85.0317 91.1258 85.3249 90.6906 85.3443C90.7162 85.3474 90.7427 85.3474 90.7682 85.3474C91.1738 85.3474 91.5528 85.0889 91.8 84.7692C92.0707 84.4259 92.2526 84.0244 92.3946 83.6158C92.6602 82.7904 92.7633 81.9293 92.8052 81.0701C92.8492 79.3692 92.843 77.6745 92.8624 75.9756C92.843 74.2788 93.5388 76.1958 93.5 74.5C93.4622 72.8022 92.9423 75.6968 92.8462 74Z" fill="#3F9AC4"/>
<path d="M92.6274 57.5192C92.5753 57.1239 92.5518 56.7275 92.514 56.3311C92.4905 55.9317 92.4731 55.5446 92.4057 55.1635C92.3475 54.8193 92.2688 54.4791 92.1636 54.1501H92.6151C92.6948 54.4699 92.7448 54.7968 92.7632 55.1237C92.8072 55.945 92.7091 56.7234 92.6274 57.5192Z" fill="#E2FAFA"/>
<path d="M87.44 58.9504C87.44 58.9504 87.439 58.9504 87.438 58.9504V58.4815C87.439 58.4815 87.44 58.4815 87.44 58.4815C88.8365 58.4887 90.236 58.5305 91.6335 58.7154C90.236 58.9014 88.8365 58.9433 87.44 58.9504Z" fill="#E2FAFA"/>
<path d="M87.44 61.7873C87.44 61.7873 87.439 61.7873 87.438 61.7873V61.3184C87.439 61.3184 87.44 61.3184 87.44 61.3184C88.8365 61.3245 90.236 61.3674 91.6335 61.5523C90.236 61.7383 88.8365 61.7801 87.44 61.7873Z" fill="#E2FAFA"/>
<path d="M87.44 64.6231C87.44 64.6231 87.439 64.6231 87.438 64.6231V64.1542C87.439 64.1542 87.44 64.1542 87.44 64.1542C88.8365 64.1614 90.236 64.2032 91.6335 64.3892C90.236 64.5741 88.8365 64.616 87.44 64.6231Z" fill="#E2FAFA"/>
</svg>
